<?xml version="1.0" standalone="no"?><!DOCTYPE svg PUBLIC "-//W3C//DTD SVG 1.1//EN" "http://www.w3.org/Graphics/SVG/1.1/DTD/svg11.dtd"><svg t="1564499929778" class="icon" viewBox="0 0 1024 1024" version="1.1" xmlns="http://www.w3.org/2000/svg" p-id="6042" xmlns:xlink="http://www.w3.org/1999/xlink" width="32" height="32"><defs><style type="text/css"></style></defs><path d="M841.027584 890.625024c0.356352 0-1.142784 1.329152-1.142784 5.298176v-5.298176h1.142784zM184.1152 895.9232c0-3.969024-1.499136-5.298176-1.142784-5.298176h1.142784v5.298176z m655.7696-5.298176V697.986048h55.981056v197.937152c0 26.863616-24.552448 48.64-54.838272 48.64H182.972416c-30.285824 0-54.838272-21.776384-54.838272-48.64V697.986048H184.1152V890.624h655.7696z m-655.7696 5.298176c0-3.969024-1.499136-5.298176-1.142784-5.298176h1.142784v5.298176z m656.912384-5.298176c0.356352 0-1.142784 1.329152-1.142784 5.298176v-5.298176h1.142784z m-656.912384 0h655.7696V697.986048h55.981056v197.937152c0 26.863616-24.552448 48.64-54.838272 48.64H182.972416c-30.285824 0-54.838272-21.776384-54.838272-48.64V697.986048H184.1152V890.624zM890.831872 554.110976c42.390528-23.74656 68.763648-68.979712 69.170176-118.12352 0-14.66368-2.438144-29.326336-7.303168-43.78112a60.430336 60.430336 0 0 1-1.216512-4.332544l-87.631872-222.4128c-7.303168-21.88288-27.99616-23.952384-39.96672-24.779776H202.753024c-29.20448 0-35.089408 17.558528-36.919296 23.335936L72.12032 389.523456c-0.201728 1.032192-0.411648 2.276352-0.817152 3.309568-4.864 14.447616-7.303168 29.323264-7.303168 43.978752 0 49.77152 26.779648 95.410176 69.987328 118.74304 16.83456 9.09312 37.730304 13.838336 62.06976 13.838336 45.647872-0.205824 87.63392-23.953408 111.973376-63.807488 1.831936-4.339712 4.871168-10.743808 10.553344-17.137664 15.415296-18.797568 55.17312-19.827712 72.824832 1.649664 4.46464 4.952064 7.302144 10.942464 8.923136 14.449664 24.346624 40.060928 65.928192 64.013312 111.566848 64.226304 45.033472-0.212992 86.62016-24.1664 110.756864-64.02048 2.034688-4.33152 4.872192-10.11712 9.945088-15.900672 7.708672-9.703424 21.300224-15.899648 36.31104-15.899648 18.66752 0 29.81888 8.465408 36.109312 15.488 5.4784 5.9904 8.31488 12.391424 10.140672 16.10752 24.541184 40.265728 66.332672 64.02048 112.377856 64.02048 24.95488 0 46.25408-4.960256 63.29344-14.457856zM9.53344 376.824832a248.179712 248.179712 0 0 1 1.943552-5.953536l-0.576512 1.65888c-0.866304 2.502656-1.113088 3.262464-1.36704 4.294656-0.048128 0.195584 1.016832-3.2512 3.195904-10.340352L104.635392 145.92c11.954176-37.7344 42.662912-67.072 98.117632-67.072l625.69472 0.157696c44.796928 3.094528 80.033792 18.690048 95.215616 64.457728l87.631872 222.4128 2.451456 7.693312c6.736896 20.082688 10.25536 41.193472 10.253312 62.911488-0.584704 70.808576-38.887424 136.292352-101.075968 171.123712-27.574272 15.37536-59.908096 22.796288-95.3856 22.796288-62.313472 0-119.343104-28.995584-158.203904-81.445888-36.33152 50.669568-94.273536 81.353728-157.745152 81.651712-62.90432-0.293888-120.4736-30.461952-157.052928-80.654336-36.583424 50.583552-94.86336 80.98816-158.47936 81.27488-34.603008 0-66.250752-7.089152-93.29664-21.69856C39.088128 575.142912 0 508.744704 0 436.811776c0-19.431424 2.951168-38.92736 9.53344-59.986944z m247.240704-111.69792a0.503808 0.503808 0 0 0-0.503808 0.504832v61.444096c0 0.278528 0.22528 0.503808 0.503808 0.503808h511.529984c0.278528 0 0.504832-0.22528 0.504832-0.503808v-61.444096a0.503808 0.503808 0 0 0-0.504832-0.503808h-511.52896z" p-id="6043"></path></svg>