<?xml version="1.0" standalone="no"?><!DOCTYPE svg PUBLIC "-//W3C//DTD SVG 1.1//EN" "http://www.w3.org/Graphics/SVG/1.1/DTD/svg11.dtd"><svg t="1543802593586" class="icon" style="" viewBox="0 0 1024 1024" version="1.1" xmlns="http://www.w3.org/2000/svg" p-id="5410" xmlns:xlink="http://www.w3.org/1999/xlink" width="200" height="200"><defs><style type="text/css"></style></defs><path d="M405.312 109.248h213.376V115.2a106.688 106.688 0 1 0 213.312 0v-5.952h86.272A73.6 73.6 0 0 1 992 182.784v131.264H32V182.784a73.6 73.6 0 0 1 73.728-73.536H192V115.2a106.688 106.688 0 1 0 213.312 0v-5.952zM992 950.528A73.6 73.6 0 0 1 918.272 1024H105.728A73.6 73.6 0 0 1 32 950.528V381.824h960v568.704zM298.688 0C328.128 0 352 23.872 352 53.312v57.28a53.312 53.312 0 0 1-106.688 0V53.312c0-29.44 23.872-53.312 53.376-53.312z m426.624 0c29.44 0 53.376 23.872 53.376 53.312v57.28a53.312 53.312 0 0 1-106.688 0V53.312c0-29.44 23.872-53.312 53.312-53.312z m-6.016 498.048l-256.896 255.168-126.336-125.44a43.008 43.008 0 0 0-60.608 0 42.752 42.752 0 0 0 0 60.608l156.672 155.648a42.88 42.88 0 0 0 60.544 0l287.232-285.312a42.752 42.752 0 0 0 0-60.672 43.008 43.008 0 0 0-60.608 0z" p-id="5411" fill="#CCCCCC"></path></svg>