<?xml version="1.0" standalone="no"?><!DOCTYPE svg PUBLIC "-//W3C//DTD SVG 1.1//EN" "http://www.w3.org/Graphics/SVG/1.1/DTD/svg11.dtd"><svg t="1545271343247" class="icon" style="" viewBox="0 0 1024 1024" version="1.1" xmlns="http://www.w3.org/2000/svg" p-id="2383" xmlns:xlink="http://www.w3.org/1999/xlink" width="200" height="200"><defs><style type="text/css"></style></defs><path d="M980.871 939.783c0-132.76-77.722-248.223-189.904-303.2a98.84 98.84 0 0 1 8.26 39.595v11.717c54.074 11.362 95 59.582 95 116.906v64.246c8.209 7.072 13.412 17.534 13.412 29.218 0 21.296-17.264 38.559-38.559 38.559-21.296 0-38.56-17.264-38.56-38.559 0-12.837 6.28-24.2 15.927-31.21v-65.63c0-38.945-31.863-70.808-70.807-70.808h-0.047c-38.945 0-70.808 31.863-70.808 70.808v66.914c8.692 7.07 14.25 17.848 14.25 29.926 0 21.296-17.264 38.559-38.56 38.559-21.295 0-38.559-17.264-38.559-38.559 0-11.684 5.205-22.145 13.411-29.218v-64.246c0-58.562 42.725-107.6 98.536-117.565-2.186-28.777-13.86-54.999-31.876-75.547a334.347 334.347 0 0 0-56.056-8.542c-9.26 212.545-74.647 377.267-153.942 377.267-79.302 0-144.691-164.748-153.944-377.317-0.411 0.026-0.818 0.066-1.228 0.094-19.253 22.664-30.918 51.944-30.918 83.835v97.43c27.397 10.071 46.942 36.396 46.942 67.287 0 39.582-32.088 71.67-71.67 71.67s-71.67-32.088-71.67-71.67c0-32.544 21.7-60.005 51.413-68.747V666.117c0-19.534 5.71-37.79 15.513-53.221C150.798 650.231 42.32 782.935 42.32 939.783v10.453h0.716c-0.184 0.82-0.312 1.645-0.312 2.474 0 39.373 210.01 71.292 469.073 71.292s469.074-31.92 469.074-71.293c0-0.828-0.127-1.652-0.312-2.473h0.312v-10.453zM517.23 232.701c-116.316 0-210.61 35.887-210.61 80.157 0 1.512 0.121 3.013 0.338 4.505h-0.338l44.491 209.173a167.448 167.448 0 0 0 2.33 10.956l0.122 0.574h0.02c18.403 73.304 85.041 128.006 163.844 128.006h0.022c84.225 0 154.562-62.48 166.956-143.38l43.432-205.33h-0.337c0.217-1.49 0.337-2.993 0.337-4.505 0-44.269-94.293-80.156-210.607-80.156z m-1.049-15.648c103.407 0 191.19 34.392 222.474 82.147h8.322V98.581h-0.04c0.014-0.371 0.04-0.743 0.04-1.117 0-44.751-102.846-81.03-229.713-81.03S287.55 52.712 287.55 97.464c0 0.373 0.026 0.746 0.04 1.117h-0.04v200.62h6.157c31.283-47.756 119.067-82.147 222.474-82.147z m-63.707-105.27c0-8.643 7.073-15.716 15.718-15.716h33.53V62.54c0-8.644 7.072-15.718 15.716-15.718s15.717 7.073 15.717 15.717v33.53h33.53c8.645 0 15.718 7.073 15.718 15.717s-7.072 15.718-15.718 15.718h-33.53v33.53c0 8.644-7.072 15.716-15.717 15.716s-15.716-7.072-15.716-15.716v-33.531h-33.53c-8.645 0-15.718-7.074-15.718-15.718z" p-id="2384" fill="#333333"></path></svg>