<?xml version="1.0" standalone="no"?><!DOCTYPE svg PUBLIC "-//W3C//DTD SVG 1.1//EN" "http://www.w3.org/Graphics/SVG/1.1/DTD/svg11.dtd"><svg t="1542596049004" class="icon" style="" viewBox="0 0 1055 1024" version="1.1" xmlns="http://www.w3.org/2000/svg" p-id="14426" xmlns:xlink="http://www.w3.org/1999/xlink" width="131.875" height="128"><defs><style type="text/css"></style></defs><path d="M1043.313089 460.959446L618.916466 36.562824c-48.436263-48.436263-133.507396-48.436263-181.943659 0L12.576185 460.959446c-16.739506 16.739506-16.739506 43.907986 0 60.648674 16.739506 16.738325 43.907986 16.738325 60.648673 0l68.879649-68.88083v485.044115c0 47.200849 38.556494 85.757343 85.758524 85.757342h171.513504V809.203303c0-23.600424 19.34734-42.809578 42.810759-42.809578h171.514685c23.600424 0 42.810759 19.346159 42.810759 42.809578v214.325444h171.514685c47.200849 0 85.757343-38.556494 85.757343-85.758523V452.728471l68.88083 68.88083c8.369163 8.369163 19.346159 12.622247 30.323156 12.622247s21.953993-4.253084 30.324337-12.623428c16.739506-16.739506 16.739506-43.907986 0-60.647493z" p-id="14427" fill="#ffffff"></path></svg>