<?xml version="1.0" standalone="no"?><!DOCTYPE svg PUBLIC "-//W3C//DTD SVG 1.1//EN" "http://www.w3.org/Graphics/SVG/1.1/DTD/svg11.dtd"><svg t="1546827685813" class="icon" style="" viewBox="0 0 1024 1024" version="1.1" xmlns="http://www.w3.org/2000/svg" p-id="2437" xmlns:xlink="http://www.w3.org/1999/xlink" width="180" height="180"><defs><style type="text/css"></style></defs><path d="M874.666667 0H149.333333L0 341.333333c0 93.866667 76.8 170.666667 170.666667 170.666667s170.666667-76.8 170.666666-170.666667c0 93.866667 76.8 170.666667 170.666667 170.666667s170.666667-76.8 170.666667-170.666667c0 93.866667 76.8 170.666667 170.666666 170.666667s170.666667-76.8 170.666667-170.666667L874.666667 0zM682.666667 522.666667c-44.8 46.933333-104.533333 74.666667-170.666667 74.666666s-125.866667-25.6-170.666667-74.666666c-44.8 46.933333-104.533333 74.666667-170.666666 74.666666-38.4 0-74.666667-8.533333-106.666667-25.6v334.933334c0 64 53.333333 117.333333 117.333333 117.333333h661.333334c64 0 117.333333-53.333333 117.333333-117.333333V571.733333c-32 17.066667-68.266667 25.6-106.666667 25.6-66.133333 0-125.866667-25.6-170.666666-74.666666z" p-id="2438" fill="#333333"></path></svg>