<?xml version="1.0" standalone="no"?><!DOCTYPE svg PUBLIC "-//W3C//DTD SVG 1.1//EN" "http://www.w3.org/Graphics/SVG/1.1/DTD/svg11.dtd"><svg t="1543473142131" class="icon" style="" viewBox="0 0 1204 1024" version="1.1" xmlns="http://www.w3.org/2000/svg" p-id="1758" xmlns:xlink="http://www.w3.org/1999/xlink" width="235.15625" height="200"><defs><style type="text/css"></style></defs><path d="M0.180706 276.600471l3.915294-10.360471c9.878588-28.069647 35.84-46.863059 67.463529-48.971294a76.498824 76.498824 0 0 1 71.077647 39.092706c13.854118 25.6 9.999059 55.777882-9.999058 78.245647-2.409412 2.469647-4.698353 4.939294-7.348706 7.830588 55.898353 32.406588 111.435294 64.451765 166.791529 96.677647 20.961882 12.288 42.044235 24.576 63.006118 36.442353 12.047059 6.686118 21.263059 4.758588 27.708235-6.384941 63.608471-109.748706 127.216941-219.617882 191.36753-330.571294-27.708235-13.312-45.658353-33.731765-47.344942-63.849412a66.620235 66.620235 0 0 1 22.648471-54.151529c31.442824-28.973176 83.004235-26.262588 110.592 5.903058 31.744 36.864 20.299294 79.932235-30.057412 112.338824 16.384 28.491294 32.948706 57.103059 49.633883 85.594353l138.36047 238.893176c10.601412 18.371765 17.408 20.118588 36.442353 9.396706 71.439059-41.321412 142.757647-82.883765 214.196706-124.265412 3.312941-1.987765 6.445176-3.915294 10.300235-6.144-14.757647-13.974588-24.094118-29.816471-25.238588-49.27247-2.048-36.442353 24.455529-68.306824 61.560471-74.330353 38.550588-6.445176 74.450824 14.456471 85.895529 49.874823 0.843294 2.770824 2.108235 5.662118 3.192471 8.432942v24.515764c-12.167529 36.864-37.104941 58.307765-79.992471 58.548706-1.505882 4.216471-3.192471 8.372706-4.397176 12.528941l-125.409883 407.552c-5.421176 17.769412-12.047059 22.287059-30.900706 22.287059H241.844706c-20.239059 0-26.503529-4.397176-31.924706-22.287059-34.153412-110.170353-67.764706-220.702118-101.797647-330.87247-9.155765-29.756235-18.552471-59.572706-27.768471-89.449412-31.984941 0-56.139294-12.047059-71.198117-38.189176-3.614118-6.384941-5.903059-13.552941-8.794353-20.35953-0.180706-8.493176-0.180706-16.624941-0.180706-24.69647z m601.810823 596.931764h337.257412c30.117647 0 54.031059 20.178824 57.344 47.224471 3.312941 27.286588-15.540706 52.103529-44.634353 58.247529a52.224 52.224 0 0 1-12.709647 1.204706H264.432941c-25.660235 0-47.344941-14.456471-54.814117-36.442353-7.649882-21.985882-0.481882-46.802824 20.058352-59.331764 10.601412-6.384941 24.696471-10.842353 37.104942-10.842353 111.856941-0.542118 223.593412 0 335.149176 0z" p-id="1759" fill="#CCCCCC"></path></svg>