<?xml version="1.0" standalone="no"?><!DOCTYPE svg PUBLIC "-//W3C//DTD SVG 1.1//EN" "http://www.w3.org/Graphics/SVG/1.1/DTD/svg11.dtd"><svg t="1543285245918" class="icon" style="" viewBox="0 0 1024 1024" version="1.1" xmlns="http://www.w3.org/2000/svg" p-id="2800" xmlns:xlink="http://www.w3.org/1999/xlink" width="150" height="150"><defs><style type="text/css"></style></defs><path d="M881.664 56.832h-85.504v113.664H227.328V56.832H142.336c-47.104 0-85.504 38.4-85.504 85.504v796.16c0 47.104 38.4 85.504 85.504 85.504h739.328c47.104 0 85.504-38.4 85.504-85.504V142.336c0-47.104-38.4-85.504-85.504-85.504z m-654.336 512h455.168v56.832H227.328v-56.832z m568.832 227.328H227.328v-56.832h568.832v56.832z m0-340.992H227.328V398.336h568.832v56.832z" p-id="2801"></path><path d="M312.832 113.664h398.336c15.872 0 28.672-12.8 28.672-28.16V28.672c0-15.872-12.8-28.672-28.672-28.672H312.832c-15.872 0-28.672 12.8-28.672 28.672v56.832c0 15.36 12.8 28.16 28.672 28.16z" p-id="2802"></path></svg>