<?xml version="1.0" standalone="no"?><!DOCTYPE svg PUBLIC "-//W3C//DTD SVG 1.1//EN" "http://www.w3.org/Graphics/SVG/1.1/DTD/svg11.dtd"><svg t="1542595933116" class="icon" style="" viewBox="0 0 1024 1024" version="1.1" xmlns="http://www.w3.org/2000/svg" p-id="11264" xmlns:xlink="http://www.w3.org/1999/xlink" width="128" height="128"><defs><style type="text/css"></style></defs><path d="M731.428571 292.571429 731.428571 219.428571c0-121.197714-98.230857-219.428571-219.428571-219.428571S292.571429 98.230857 292.571429 219.428571l0 73.142857L73.142857 292.571429l0 731.428571 877.714286 0L950.857143 292.571429 731.428571 292.571429zM329.142857 438.857143C308.955429 438.857143 292.571429 422.473143 292.571429 402.285714S308.955429 365.714286 329.142857 365.714286 365.714286 382.098286 365.714286 402.285714 349.330286 438.857143 329.142857 438.857143zM365.714286 219.428571c0-80.749714 65.536-146.285714 146.285714-146.285714 80.749714 0 146.285714 65.536 146.285714 146.285714l0 73.142857L365.714286 292.571429 365.714286 219.428571zM694.857143 438.857143C674.742857 438.857143 658.285714 422.473143 658.285714 402.285714S674.742857 365.714286 694.857143 365.714286 731.428571 382.098286 731.428571 402.285714 714.971429 438.857143 694.857143 438.857143z" p-id="11265" fill="#ffffff"></path></svg>