<?xml version="1.0" standalone="no"?><!DOCTYPE svg PUBLIC "-//W3C//DTD SVG 1.1//EN" "http://www.w3.org/Graphics/SVG/1.1/DTD/svg11.dtd"><svg t="1543484507258" class="icon" style="" viewBox="0 0 1024 1024" version="1.1" xmlns="http://www.w3.org/2000/svg" p-id="1759" xmlns:xlink="http://www.w3.org/1999/xlink" width="200" height="200"><defs><style type="text/css"></style></defs><path d="M850.694 515.389c0-15.996-1.364-31.094-3.181-46.17l95.437-77.748c8.599-7.074 10.868-19.782 5.449-30.144l-90.463-163.029c-5.411-10.362-17.628-14.141-27.584-10.362l-112.621 47.113c-23.376-18.893-49.098-34.428-76.46-46.201L624.073 64.002c-1.518-11.451-11.014-19.935-22.142-19.789h-180.95c-11.313 0-20.809 8.461-22.15 19.789l-17.199 124.876c-27.592 11.773-52.915 27.776-76.452 46.155l-112.628-47.128c-10.401-4.323-22.28 0.153-27.6 10.393L74.458 361.327c-5.718 10.033-3.403 22.917 5.419 30.144l95.429 77.748c-1.778 15.091-3.142 30.627-3.142 46.17 0 15.566 1.364 31.125 3.173 46.17L79.908 639.33c-8.599 7.051-10.868 19.766-5.449 30.129l90.471 163.045c5.426 10.37 17.636 14.118 27.6 10.37l112.621-47.121c23.384 18.877 49.098 34.405 76.46 46.155l17.199 118.538c1.341 11.305 10.837 19.789 22.142 19.789h180.949c11.305 0 20.809-8.469 22.173-19.789l17.199-118.538c27.561-11.75 52.892-27.783 76.429-46.155l112.628 47.121c10.401 4.323 22.265-0.13 27.592-10.37L948.4 669.459c5.419-10.362 3.173-23.078-5.426-30.144l-95.437-77.755c1.792-15.068 3.157-30.152 3.157-46.171zM511.429 680.327c-87.305 0-158.316-73.992-158.316-164.938 0-90.938 71.011-164.907 158.316-164.907s158.308 73.969 158.308 164.907c0 90.946-71.003 164.938-158.308 164.938z m0 0" p-id="1760" fill="#CCCCCC"></path></svg>